<svg xmlns="http://www.w3.org/2000/svg" viewBox="0 0 720 320" width="720" height="320" preserveAspectRatio="xMidYMid meet"><path d="M18 18 H702 V128 a34 34 0 0 0 0 68 V302 H18 V196 a34 34 0 0 0 0-68Z" fill="#f4e7c9" stroke="#c2a97a" stroke-width="6"/><path d="M486 26 V294" stroke="#c2a97a" stroke-width="5" stroke-dasharray="16 14"/><g fill="#b8563f" opacity=".85"><rect x="60" y="72" width="330" height="26" rx="13"/><rect x="60" y="126" width="228" height="18" rx="9" opacity=".62"/><rect x="60" y="172" width="286" height="18" rx="9" opacity=".62"/><rect x="60" y="218" width="150" height="18" rx="9" opacity=".45"/></g><g fill="#3a3226" opacity=".5"><rect x="528" y="96" width="9" height="128"/><rect x="546" y="96" width="5" height="128"/><rect x="564" y="96" width="5" height="128"/><rect x="582" y="96" width="9" height="128"/><rect x="600" y="96" width="5" height="128"/><rect x="618" y="96" width="5" height="128"/><rect x="636" y="96" width="9" height="128"/><rect x="654" y="96" width="5" height="128"/><rect x="672" y="96" width="5" height="128"/></g></svg>